<svg id="visual" viewBox="0 0 900 600" width="900" height="600" xmlns="http://www.w3.org/2000/svg" xmlns:xlink="http://www.w3.org/1999/xlink" version="1.1"><rect x="0" y="0" width="900" height="600" fill="#46e9ff"></rect><path d="M0 429L129 383L257 426L386 404L514 438L643 397L771 402L900 411L900 601L771 601L643 601L514 601L386 601L257 601L129 601L0 601Z" fill="#0abcf5"></path><path d="M0 458L129 444L257 436L386 450L514 436L643 443L771 448L900 457L900 601L771 601L643 601L514 601L386 601L257 601L129 601L0 601Z" fill="#009cea"></path><path d="M0 448L129 473L257 452L386 465L514 451L643 468L771 470L900 481L900 601L771 601L643 601L514 601L386 601L257 601L129 601L0 601Z" fill="#007bda"></path><path d="M0 502L129 496L257 493L386 484L514 481L643 478L771 487L900 473L900 601L771 601L643 601L514 601L386 601L257 601L129 601L0 601Z" fill="#0057c3"></path><path d="M0 525L129 524L257 510L386 533L514 517L643 522L771 517L900 532L900 601L771 601L643 601L514 601L386 601L257 601L129 601L0 601Z" fill="#0032a7"></path><path d="M0 542L129 557L257 555L386 558L514 552L643 540L771 552L900 548L900 601L771 601L643 601L514 601L386 601L257 601L129 601L0 601Z" fill="#000087"></path></svg>